<mxfile host="app.diagrams.net" agent="Mozilla/5.0 (Windows NT 10.0; Win64; x64) AppleWebKit/537.36 (KHTML, like Gecko) Chrome/127.0.0.0 Safari/537.36 OPR/113.0.0.0 (Edition std-2)" version="24.7.15">
  <diagram name="Page-1" id="mvTMJ631CIhL3_nFgB80">
    <mxGraphModel dx="1195" dy="695" grid="1" gridSize="10" guides="1" tooltips="1" connect="1" arrows="1" fold="1" page="1" pageScale="1" pageWidth="850" pageHeight="1100" math="0" shadow="0">
      <root>
        <mxCell id="0" />
        <mxCell id="1" parent="0" />
        <mxCell id="06kiK3NrnsaXHrTGm-zj-6" value="" style="edgeStyle=orthogonalEdgeStyle;rounded=0;orthogonalLoop=1;jettySize=auto;html=1;" edge="1" parent="1" source="06kiK3NrnsaXHrTGm-zj-1" target="06kiK3NrnsaXHrTGm-zj-2">
          <mxGeometry relative="1" as="geometry" />
        </mxCell>
        <mxCell id="06kiK3NrnsaXHrTGm-zj-1" value="Inicio" style="ellipse;whiteSpace=wrap;html=1;" vertex="1" parent="1">
          <mxGeometry x="40" y="40" width="120" height="80" as="geometry" />
        </mxCell>
        <mxCell id="06kiK3NrnsaXHrTGm-zj-7" value="" style="edgeStyle=orthogonalEdgeStyle;rounded=0;orthogonalLoop=1;jettySize=auto;html=1;" edge="1" parent="1" source="06kiK3NrnsaXHrTGm-zj-2" target="06kiK3NrnsaXHrTGm-zj-4">
          <mxGeometry relative="1" as="geometry" />
        </mxCell>
        <mxCell id="06kiK3NrnsaXHrTGm-zj-2" value="Ler Lado" style="shape=parallelogram;perimeter=parallelogramPerimeter;whiteSpace=wrap;html=1;fixedSize=1;" vertex="1" parent="1">
          <mxGeometry x="40" y="170" width="120" height="60" as="geometry" />
        </mxCell>
        <mxCell id="06kiK3NrnsaXHrTGm-zj-9" value="" style="edgeStyle=orthogonalEdgeStyle;rounded=0;orthogonalLoop=1;jettySize=auto;html=1;" edge="1" parent="1" source="06kiK3NrnsaXHrTGm-zj-3" target="06kiK3NrnsaXHrTGm-zj-5">
          <mxGeometry relative="1" as="geometry" />
        </mxCell>
        <mxCell id="06kiK3NrnsaXHrTGm-zj-3" value="Escrever Area" style="shape=parallelogram;perimeter=parallelogramPerimeter;whiteSpace=wrap;html=1;fixedSize=1;" vertex="1" parent="1">
          <mxGeometry x="40" y="400" width="120" height="60" as="geometry" />
        </mxCell>
        <mxCell id="06kiK3NrnsaXHrTGm-zj-8" value="" style="edgeStyle=orthogonalEdgeStyle;rounded=0;orthogonalLoop=1;jettySize=auto;html=1;" edge="1" parent="1" source="06kiK3NrnsaXHrTGm-zj-4" target="06kiK3NrnsaXHrTGm-zj-3">
          <mxGeometry relative="1" as="geometry" />
        </mxCell>
        <mxCell id="06kiK3NrnsaXHrTGm-zj-4" value="Area = Lado * Lado" style="rounded=0;whiteSpace=wrap;html=1;" vertex="1" parent="1">
          <mxGeometry x="40" y="290" width="120" height="60" as="geometry" />
        </mxCell>
        <mxCell id="06kiK3NrnsaXHrTGm-zj-5" value="Fim" style="ellipse;whiteSpace=wrap;html=1;" vertex="1" parent="1">
          <mxGeometry x="40" y="510" width="120" height="80" as="geometry" />
        </mxCell>
        <mxCell id="06kiK3NrnsaXHrTGm-zj-17" value="" style="edgeStyle=orthogonalEdgeStyle;rounded=0;orthogonalLoop=1;jettySize=auto;html=1;" edge="1" parent="1" source="06kiK3NrnsaXHrTGm-zj-10" target="06kiK3NrnsaXHrTGm-zj-13">
          <mxGeometry relative="1" as="geometry" />
        </mxCell>
        <mxCell id="06kiK3NrnsaXHrTGm-zj-10" value="Inicio" style="ellipse;whiteSpace=wrap;html=1;" vertex="1" parent="1">
          <mxGeometry x="250" y="40" width="120" height="80" as="geometry" />
        </mxCell>
        <mxCell id="06kiK3NrnsaXHrTGm-zj-26" value="" style="edgeStyle=orthogonalEdgeStyle;rounded=0;orthogonalLoop=1;jettySize=auto;html=1;" edge="1" parent="1" source="06kiK3NrnsaXHrTGm-zj-11" target="06kiK3NrnsaXHrTGm-zj-23">
          <mxGeometry relative="1" as="geometry" />
        </mxCell>
        <mxCell id="06kiK3NrnsaXHrTGm-zj-11" value="Inicio" style="ellipse;whiteSpace=wrap;html=1;" vertex="1" parent="1">
          <mxGeometry x="450" y="40" width="130" height="80" as="geometry" />
        </mxCell>
        <mxCell id="06kiK3NrnsaXHrTGm-zj-18" value="" style="edgeStyle=orthogonalEdgeStyle;rounded=0;orthogonalLoop=1;jettySize=auto;html=1;" edge="1" parent="1" source="06kiK3NrnsaXHrTGm-zj-13" target="06kiK3NrnsaXHrTGm-zj-14">
          <mxGeometry relative="1" as="geometry" />
        </mxCell>
        <mxCell id="06kiK3NrnsaXHrTGm-zj-13" value="&lt;font style=&quot;font-size: 11px;&quot;&gt;Ler P1, P2, P3, P4&lt;/font&gt;" style="shape=parallelogram;perimeter=parallelogramPerimeter;whiteSpace=wrap;html=1;fixedSize=1;" vertex="1" parent="1">
          <mxGeometry x="250" y="170" width="120" height="60" as="geometry" />
        </mxCell>
        <mxCell id="06kiK3NrnsaXHrTGm-zj-19" value="" style="edgeStyle=orthogonalEdgeStyle;rounded=0;orthogonalLoop=1;jettySize=auto;html=1;" edge="1" parent="1" source="06kiK3NrnsaXHrTGm-zj-14" target="06kiK3NrnsaXHrTGm-zj-15">
          <mxGeometry relative="1" as="geometry" />
        </mxCell>
        <mxCell id="06kiK3NrnsaXHrTGm-zj-14" value="(P1+P2+P3+P4) /4=M" style="rounded=0;whiteSpace=wrap;html=1;" vertex="1" parent="1">
          <mxGeometry x="250" y="290" width="120" height="60" as="geometry" />
        </mxCell>
        <mxCell id="06kiK3NrnsaXHrTGm-zj-20" value="" style="edgeStyle=orthogonalEdgeStyle;rounded=0;orthogonalLoop=1;jettySize=auto;html=1;" edge="1" parent="1" source="06kiK3NrnsaXHrTGm-zj-15" target="06kiK3NrnsaXHrTGm-zj-16">
          <mxGeometry relative="1" as="geometry" />
        </mxCell>
        <mxCell id="06kiK3NrnsaXHrTGm-zj-15" value="Escrever M" style="shape=parallelogram;perimeter=parallelogramPerimeter;whiteSpace=wrap;html=1;fixedSize=1;" vertex="1" parent="1">
          <mxGeometry x="250" y="400" width="120" height="60" as="geometry" />
        </mxCell>
        <mxCell id="06kiK3NrnsaXHrTGm-zj-16" value="Fim" style="ellipse;whiteSpace=wrap;html=1;" vertex="1" parent="1">
          <mxGeometry x="250" y="510" width="120" height="80" as="geometry" />
        </mxCell>
        <mxCell id="06kiK3NrnsaXHrTGm-zj-21" value="Fim" style="ellipse;whiteSpace=wrap;html=1;" vertex="1" parent="1">
          <mxGeometry x="450" y="510" width="130" height="80" as="geometry" />
        </mxCell>
        <mxCell id="06kiK3NrnsaXHrTGm-zj-27" value="" style="edgeStyle=orthogonalEdgeStyle;rounded=0;orthogonalLoop=1;jettySize=auto;html=1;" edge="1" parent="1" source="06kiK3NrnsaXHrTGm-zj-23" target="06kiK3NrnsaXHrTGm-zj-25">
          <mxGeometry relative="1" as="geometry" />
        </mxCell>
        <mxCell id="06kiK3NrnsaXHrTGm-zj-23" value="Ler KMAntes, KMDepois,&lt;div&gt;&amp;nbsp;LGastos&lt;/div&gt;" style="shape=parallelogram;perimeter=parallelogramPerimeter;whiteSpace=wrap;html=1;fixedSize=1;" vertex="1" parent="1">
          <mxGeometry x="450" y="170" width="130" height="60" as="geometry" />
        </mxCell>
        <mxCell id="06kiK3NrnsaXHrTGm-zj-29" value="" style="edgeStyle=orthogonalEdgeStyle;rounded=0;orthogonalLoop=1;jettySize=auto;html=1;" edge="1" parent="1" source="06kiK3NrnsaXHrTGm-zj-24" target="06kiK3NrnsaXHrTGm-zj-21">
          <mxGeometry relative="1" as="geometry" />
        </mxCell>
        <mxCell id="06kiK3NrnsaXHrTGm-zj-24" value="Escrever Gasta" style="shape=parallelogram;perimeter=parallelogramPerimeter;whiteSpace=wrap;html=1;fixedSize=1;" vertex="1" parent="1">
          <mxGeometry x="450" y="400" width="130" height="60" as="geometry" />
        </mxCell>
        <mxCell id="06kiK3NrnsaXHrTGm-zj-28" value="" style="edgeStyle=orthogonalEdgeStyle;rounded=0;orthogonalLoop=1;jettySize=auto;html=1;" edge="1" parent="1" source="06kiK3NrnsaXHrTGm-zj-25" target="06kiK3NrnsaXHrTGm-zj-24">
          <mxGeometry relative="1" as="geometry" />
        </mxCell>
        <mxCell id="06kiK3NrnsaXHrTGm-zj-25" value="Gasta=LGastos*100&lt;div&gt;&lt;span style=&quot;background-color: initial;&quot;&gt;/(KMDepois-KMAntes)&lt;/span&gt;&lt;/div&gt;" style="rounded=0;whiteSpace=wrap;html=1;" vertex="1" parent="1">
          <mxGeometry x="450" y="290" width="130" height="60" as="geometry" />
        </mxCell>
      </root>
    </mxGraphModel>
  </diagram>
</mxfile>
